<svg viewBox="0 0 512 512">
    <path
        d="M442.896 139.292l28.745-8.584c-16.062-53.785-51.513-99.44-99.823-128.555l-15.485 25.695c41.901 25.251 72.643 64.83 86.563 111.444zM155.667 27.847L140.182 2.153C91.871 31.268 56.42 76.923 40.358 130.708l28.745 8.584c13.921-46.614 44.663-86.193 86.564-111.445zM91 195v160.787c0 9.673-3.767 18.767-10.606 25.606C67.888 393.899 61 410.527 61 428.213V452h121.509c6.968 34.192 37.271 60 73.491 60s66.522-25.808 73.491-60H451v-23.787c0-17.687-6.888-34.314-19.394-46.82-6.84-6.84-10.606-15.933-10.606-25.606V195c0-85.924-66.023-156.706-150-164.311V0h-30v30.689C157.023 38.293 91 109.075 91 195zm165 287c-19.555 0-36.228-12.541-42.42-30.01h84.839C292.228 469.459 275.555 482 256 482zm135-287v160.787c0 17.687 6.888 34.314 19.394 46.82 5.352 5.352 8.822 12.084 10.079 19.393H91.528c1.256-7.31 4.727-14.042 10.079-19.393C114.112 390.101 121 373.473 121 355.787V195c0-74.439 60.561-135 135-135s135 60.561 135 135z" />
</svg>