<svg viewBox="0 0 512 512">
    <path
        d="M409.651 68.167l-26.944-8.1A56.087 56.087 0 00328 16H184a56.087 56.087 0 00-54.707 44.067l-26.944 8.1A71.9 71.9 0 0048 137.97V440a23.943 23.943 0 008 17.869V488a8 8 0 008 8h48a8 8 0 008-8v-30.131a23.945 23.945 0 007.987-17.343A38.665 38.665 0 00144 447.381V472a8 8 0 008 8h208a8 8 0 008-8v-24.619a38.665 38.665 0 0016.013-6.855A23.945 23.945 0 00392 457.869V488a8 8 0 008 8h48a8 8 0 008-8v-30.131A23.943 23.943 0 00464 440V137.97a71.9 71.9 0 00-54.349-69.803zm-77.116-35.912a40.079 40.079 0 0135.253 35.6l-88.449 58.966zM215.679 64h80.642L256 135.682zm89.642-16h-98.642l-9-16h116.642zM179.465 32.255l53.2 94.571-88.453-58.966a40.079 40.079 0 0135.253-35.605zM104 480H72v-16h32zm248-16H160v-16h192zm9.136-32H150.864A22.89 22.89 0 01128 409.136V192a8 8 0 00-16 0v248a8.009 8.009 0 01-8 8H72a8.009 8.009 0 01-8-8V137.97a55.919 55.919 0 0142.418-54.328c.122-.031.243-.064.363-.1l22.755-6.84a7.984 7.984 0 002.026 1.954L232 145.615V256a8 8 0 0016 0v-99.719l3.562 2.375a8 8 0 008.876 0l3.562-2.375V256a8 8 0 0016 0V145.615l100.438-66.959a7.984 7.984 0 002.026-1.954l22.755 6.84c.12.036.241.069.363.1A55.919 55.919 0 01448 137.97V440a8.009 8.009 0 01-8 8h-32a8.009 8.009 0 01-8-8V192a8 8 0 00-16 0v217.136A22.89 22.89 0 01361.136 432zM440 480h-32v-16h32z" />
</svg>