<svg viewBox="0 0 506.964 506.964" xmlns="http://www.w3.org/2000/svg">
	<path
		d="M254.321 0C115.83 0 3.357 112.472 3.357 250.125c0 43.646 11.751 85.613 33.574 124.223L0 506.964l135.134-36.092c39.449 20.984 80.577 32.734 119.187 32.734 136.813 0 252.643-115.83 252.643-253.482S393.652 0 254.321 0zm0 486.82c-36.931 0-76.38-11.751-114.151-32.734l-3.357-1.679-113.311 31.055L54.557 371.83l-1.679-3.357c-20.984-36.092-32.734-77.22-32.734-118.348 0-128.42 104.918-233.338 234.177-233.338 130.098 0 235.856 104.918 235.856 233.338S381.902 486.82 254.321 486.82z" />
	<path
		d="M254.321 41.967c-114.99 0-208.997 93.167-208.997 208.157 0 41.128 11.751 79.738 32.734 114.151l3.357 4.197-22.661 79.738 82.256-20.984 4.197 2.518c34.413 20.984 72.184 31.895 109.115 31.895 115.83 0 210.675-94.846 210.675-211.515 0-114.99-94.846-208.157-210.676-208.157zm-.839 403.725c-33.574 0-67.987-10.911-99.882-30.216l-10.072-6.715-61.272 15.108 16.787-58.754-6.715-10.911c-20.144-31.056-30.216-67.148-30.216-104.079 0-104.918 86.452-191.37 192.21-191.37 106.597 0 193.889 86.452 193.889 191.37-.001 107.436-87.293 194.727-194.729 195.567z" />
	<path
		d="M380.223 296.289l-52.879-24.341c-7.554-3.357-15.108-.839-20.144 5.036l-20.144 26.02c-15.108-5.875-57.075-24.341-81.416-69.666l18.466-21.823c4.197-5.036 5.036-11.751 2.518-17.626l-22.662-53.718c-2.518-5.875-7.554-10.072-14.269-10.072l-15.948-.839c-6.715 0-14.269 1.679-19.305 6.715-7.554 6.715-21.823 20.984-26.02 40.289-5.875 27.698 3.357 60.433 26.859 92.328 14.269 20.144 57.915 79.738 141.849 103.239 8.393 2.518 16.787 3.357 24.341 3.357 14.269 0 27.698-4.197 39.449-10.911 13.43-8.393 22.662-22.662 26.02-37.771l2.518-11.751c1.678-7.555-2.518-15.109-9.233-18.466zm-10.912 26.019c-2.518 10.911-9.233 20.984-18.466 26.859-14.269 9.233-31.056 10.911-49.521 5.875-78.059-21.823-119.187-78.059-132.616-96.525-20.144-27.698-28.538-56.236-23.502-78.898 3.357-15.108 14.269-26.02 20.984-31.895 1.679-1.679 4.197-2.518 6.715-2.518l16.787 1.679 22.662 52.879-20.144 22.662c-3.357 4.197-4.197 10.911-1.679 15.948 27.698 53.718 78.059 74.702 93.167 79.738 5.875 1.679 11.751 0 15.948-5.036l20.144-26.859 52.879 24.341-3.358 11.75z" />
</svg>