<svg viewBox="0 0 511.995 511.995" xmlns="http://www.w3.org/2000/svg">
    <linearGradient id="a" gradientUnits="userSpaceOnUse" x1="255.997" x2="255.997" y1="450.991" y2="61.004">
        <stop offset="0" stop-color="#fd5900" />
        <stop offset="1" stop-color="#ffde00" />
    </linearGradient>
    <path
        d="M346.995 120.991H139.213l10.342-41.367a15.012 15.012 0 00-6.27-16.128c-5.244-3.486-12.158-3.311-17.285.498l-120 90c-8.006 5.989-7.996 18.013 0 23.994l120 90a15.005 15.005 0 0017.285.498 15.012 15.012 0 006.27-16.128l-10.342-41.367h207.781c41.367 0 75 33.647 75 75s-33.633 75-75 75h-60.998c-8.291 0-15 6.709-15 15v60c0 8.291 6.709 15 15 15h60.998c90.967 0 165-74.019 165-165s-74.033-165-164.999-165z"
        fill="url(#a)" />
</svg>