<svg viewBox="0 0 24 24" xmlns="http://www.w3.org/2000/svg">
    <g fill="#303C42">
        <path
            d="M12.038 16.752c-.226 0-.354.143-.387.354h.756c-.033-.226-.164-.354-.369-.354zM7.363 16.767c-.275 0-.443.21-.443.467 0 .256.168.467.443.467.262 0 .44-.201.44-.467 0-.265-.178-.467-.44-.467zM16.317 16.767c-.275 0-.443.21-.443.467 0 .256.168.467.443.467.262 0 .439-.201.439-.467 0-.265-.177-.467-.44-.467z" />
        <path
            d="M22 3H2C.897 3 0 3.897 0 5v14c0 1.103.897 2 2 2h20c1.103 0 2-.897 2-2V5c0-1.103-.897-2-2-2zM6.313 17.963h-.32v-.811c0-.248-.104-.385-.32-.385-.211 0-.358.134-.358.388v.808h-.32v-.811c0-.248-.107-.385-.318-.385-.216 0-.357.134-.357.388v.808H4v-1.458h.317v.18a.482.482 0 01.428-.217c.222 0 .381.098.482.26a.565.565 0 01.512-.26c.354.003.574.235.574.58v.915zm1.789-.73v.73h-.318v-.177a.553.553 0 01-.46.214c-.41 0-.73-.32-.73-.766s.32-.766.73-.766c.207 0 .36.082.46.214v-.177h.318v.729zm.94.767c-.239 0-.458-.061-.632-.19l.15-.246a.777.777 0 00.484.152c.217 0 .333-.064.333-.177 0-.082-.082-.128-.256-.152l-.15-.022c-.326-.046-.503-.192-.503-.43 0-.29.238-.467.607-.467.232 0 .442.052.595.153l-.137.256a.94.94 0 00-.455-.125c-.174 0-.278.064-.278.17 0 .098.11.126.247.144l.15.022c.317.045.51.18.51.436 0 .278-.244.476-.666.476zm1.68 0c-.374 0-.506-.201-.506-.54v-.665H9.92v-.29h.296v-.443h.32v.443h.52v.29h-.52v.659c0 .146.053.244.211.244a.586.586 0 00.281-.083l.092.272c-.101.07-.26.113-.397.113zm2.009-.644h-1.083c.045.263.231.357.436.357a.695.695 0 00.424-.152l.156.234a.887.887 0 01-.598.205c-.437 0-.748-.302-.748-.766 0-.455.299-.766.726-.766.41 0 .69.311.693.766 0 .043-.003.082-.006.122zm1.16-.55a.517.517 0 00-.199-.036c-.207 0-.311.134-.311.376v.817h-.317v-1.458h.314v.177a.43.43 0 01.384-.214c.064 0 .156.012.226.04l-.097.299zm.96.895a.64.64 0 00.382-.131l.153.256a.764.764 0 01-.525.174c-.47 0-.778-.323-.778-.766 0-.442.308-.766.778-.766.22 0 .366.049.525.174l-.153.256a.641.641 0 00-.381-.13c-.253.002-.44.185-.44.466 0 .28.187.464.44.467zm2.204-.467v.73h-.317v-.178a.553.553 0 01-.461.214c-.409 0-.73-.32-.73-.766s.321-.766.73-.766c.207 0 .36.082.46.214v-.177h.318v.729zm1.245-.427a.517.517 0 00-.198-.037c-.208 0-.311.134-.311.376v.817h-.318v-1.458h.315v.177a.43.43 0 01.384-.214c.064 0 .156.012.226.04l-.098.299zm1.7.427v.73h-.317v-.178a.553.553 0 01-.461.214c-.41 0-.73-.32-.73-.766s.32-.766.73-.766c.207 0 .36.082.46.214v-.763H20v1.315zM15.25 15.5A4.722 4.722 0 0112 14.196 4.722 4.722 0 018.75 15.5C6.13 15.5 4 13.37 4 10.75S6.13 6 8.75 6c1.26 0 2.399.501 3.25 1.304A4.722 4.722 0 0115.25 6C17.87 6 20 8.13 20 10.75s-2.13 4.75-4.75 4.75z" />
        <path
            d="M19.261 16.767c-.274 0-.442.21-.442.467 0 .256.168.467.442.467.263 0 .44-.201.44-.467 0-.265-.177-.467-.44-.467zM12 7.304c-.918.867-1.5 2.087-1.5 3.446s.582 2.579 1.5 3.446c.918-.867 1.5-2.087 1.5-3.446s-.582-2.579-1.5-3.446z" />
    </g>
</svg>