<svg height="512" viewBox="0 0 512 512" width="512" xmlns="http://www.w3.org/2000/svg">
  <path d="M484.3 25.252H201.45c-15.274 0-27.7 12.431-27.7 27.71v111.696H27.703C12.428 164.658 0 177.086 0 192.361V340.43c0 4.143 3.358 7.5 7.5 7.5s7.5-3.357 7.5-7.5V192.361c0-7.005 5.699-12.703 12.703-12.703h181.784c4.142 0 7.5-3.357 7.5-7.5s-3.358-7.5-7.5-7.5H188.75V52.962c0-7.008 5.697-12.71 12.7-12.71H484.3c7.003 0 12.7 5.702 12.7 12.71v75.54c0 4.143 3.358 7.5 7.5 7.5s7.5-3.357 7.5-7.5v-75.54c0-15.279-12.426-27.71-27.7-27.71z"/>
  <path d="M504.5 156.044a7.5 7.5 0 00-7.5 7.5v91.448c0 7.003-5.697 12.7-12.7 12.7h-22.23a7.5 7.5 0 00-7.5 7.5v46.543l-51.847-51.847a7.5 7.5 0 00-5.303-2.196h-59.168v-58.333a168.637 168.637 0 004.644-4.957c16.396 18.26 38.452 34.778 68.137 45.521a7.504 7.504 0 009.605-4.5 7.5 7.5 0 00-4.5-9.605c-27.918-10.104-48.459-25.851-63.577-43.189 28.259-37.68 35.688-79.338 37.585-95.804h22.43c4.142 0 7.5-3.357 7.5-7.5s-3.358-7.5-7.5-7.5h-62.201V65.081c0-4.143-3.358-7.5-7.5-7.5s-7.5 3.357-7.5 7.5v16.744h-62.201c-4.142 0-7.5 3.357-7.5 7.5s3.358 7.5 7.5 7.5h101.81c-2.048 15.412-9.06 50.987-32.087 83.535-10.17-14.301-17.156-29.021-21.918-42.085a7.5 7.5 0 00-14.093 5.136 202.535 202.535 0 009.449 21.858 27.715 27.715 0 00-5.785-.612h-65.959c-4.142 0-7.5 3.357-7.5 7.5s3.358 7.5 7.5 7.5h65.959c7.004 0 12.703 5.698 12.703 12.703v202.033c0 7.005-5.699 12.703-12.703 12.703H114.577a7.5 7.5 0 00-5.303 2.196L57.427 461.14v-46.544a7.5 7.5 0 00-7.5-7.5H27.703c-7.004 0-12.703-5.698-12.703-12.703v-18.955c0-4.143-3.358-7.5-7.5-7.5s-7.5 3.357-7.5 7.5v18.955c0 15.275 12.428 27.703 27.703 27.703h14.724v57.15a7.499 7.499 0 0012.804 5.304l62.454-62.454H310.55c15.275 0 27.703-12.428 27.703-27.703V282.692h56.062l62.453 62.453a7.497 7.497 0 008.174 1.625 7.499 7.499 0 004.63-6.929v-57.149h14.73c15.274 0 27.7-12.427 27.7-27.7v-91.448a7.503 7.503 0 00-7.502-7.5z"/>
  <path d="M105.951 384.941l14.787-38.824h96.912l14.644 38.804a7.504 7.504 0 007.019 4.854 7.5 7.5 0 007.015-10.15l-66.152-175.292a11.49 11.49 0 00-10.744-7.349h-.012a11.49 11.49 0 00-10.727 7.335l-66.76 175.285a7.5 7.5 0 1014.018 5.337zm63.465-166.634l42.573 112.811H126.45z"/>
</svg>