<svg xmlns="http://www.w3.org/2000/svg" viewBox="0 0 64 64">
  <g data-name="Global pin">
    <path d="M14 8a3 3 0 10-3 3 3 3 0 003-3zm-4 0a1 1 0 111 1 1 1 0 01-1-1zM52 11a3 3 0 10-3-3 3 3 0 003 3zm0-4a1 1 0 11-1 1 1 1 0 011-1zM48 35a3 3 0 10-3 3 3 3 0 003-3zm-4 0a1 1 0 111 1 1 1 0 01-1-1zM11 29a3 3 0 103-3 3 3 0 00-3 3zm4 0a1 1 0 11-1-1 1 1 0 011 1zM30 17a3 3 0 103 3 3 3 0 00-3-3zm0 4a1 1 0 111-1 1 1 0 01-1 1zM34 45a3 3 0 10-3 3 3 3 0 003-3zm-4 0a1 1 0 111 1 1 1 0 01-1-1z"/>
    <path d="M55.658 13.588C56.871 11.669 58 9.485 58 8a6 6 0 00-11.546-2.283 29.925 29.925 0 00-29.731.483A6 6 0 005 8c0 1.672 1.431 4.231 2.8 6.3A29.687 29.687 0 002 32a30 30 0 1053.658-18.412zM52 4a4 4 0 014 4c0 1.521-2.208 4.972-4 7.365-1.792-2.393-4-5.844-4-7.365a4 4 0 014-4zm-.78 13.625a1 1 0 001.56 0c.186-.232.88-1.111 1.7-2.277a27.981 27.981 0 015.5 16.135L58 30a5.025 5.025 0 01-2-4v-2.53c0-2.085-1.348-2.763-2.651-3.418l-1.108-.552a3.032 3.032 0 00-2.723.019 2.73 2.73 0 00-1.478 1.993A3.022 3.022 0 0048 22v2.272a.708.708 0 01-.541.724.6.6 0 01-.669-.517l-.68-4.761A2.011 2.011 0 0044.13 18H44a1 1 0 01-1-1v-1a3 3 0 00-3-3h-2a1 1 0 01-1-1V4.462a27.9 27.9 0 019.012 3.3c0 .079-.012.158-.012.238 0 3.025 4.686 8.959 5.22 9.625zM11 4a4 4 0 014 4c0 1.521-2.208 4.972-4 7.365C9.208 12.972 7 9.521 7 8a4 4 0 014-4zM9.017 16.043c.59.809 1.056 1.4 1.2 1.582a1 1 0 001.56 0c.512-.639 4.83-6.113 5.185-9.23A27.745 27.745 0 0124 5.163V10a1 1 0 01-1 1 3.017 3.017 0 00-3 3v5a1 1 0 01-1 1h-4a2.963 2.963 0 00-2.976 3.341A6.007 6.007 0 008 29c0 3.025 4.686 8.959 5.22 9.625a1 1 0 001.56 0c.534-.666 5.22-6.6 5.22-9.625a5.958 5.958 0 00-.812-3h7.419a48.73 48.73 0 002.613 3.625 1 1 0 001.56 0c.138-.172.556-.7 1.1-1.435A2.982 2.982 0 0132 29a6 6 0 01-6 6h-2a3.034 3.034 0 00-2.4 1.2l-1.993 2.661A2.945 2.945 0 0019 40.67v7.913l-1.65-1.65a2.009 2.009 0 01-.546-1.019l-.5-2.5A3.013 3.013 0 0013.36 41H5.492a27.887 27.887 0 013.525-24.957zM18 29c0 1.521-2.208 4.972-4 7.365-1.792-2.393-4-5.844-4-7.365a4 4 0 018 0zm12-1.635c-1.792-2.393-4-5.844-4-7.365a4 4 0 018 0c0 1.521-2.208 4.972-4 7.365zM6.254 43h7.106a1.007 1.007 0 01.98.806l.5 2.506a4.016 4.016 0 001.092 2.035L17.583 50A2 2 0 0021 48.59v-7.92a.967.967 0 01.2-.6l2-2.665A1.019 1.019 0 0124 37h2a8 8 0 008-8 4.987 4.987 0 00-.8-2.7c1.369-2.069 2.8-4.628 2.8-6.3a6 6 0 00-12 0 9.516 9.516 0 001.4 4h-8.09A5.962 5.962 0 0014 23a1 1 0 011-1h4a3 3 0 003-3v-5a.978.978 0 01.306-.712A.957.957 0 0123 13a3 3 0 003-3V4.649a27.215 27.215 0 019-.473V12a3 3 0 003 3h2a1 1 0 011 1v1a3 3 0 003 3h.13l.682 4.77a2.609 2.609 0 002.856 2.214A2.7 2.7 0 0050 24.272V22a.971.971 0 01.013-.161.741.741 0 01.416-.54 1.035 1.035 0 01.922-.008l1.1.548c1.335.671 1.55.837 1.55 1.631V26a7.035 7.035 0 002.8 5.6l3.125 2.344a27.829 27.829 0 01-4.912 13.98l-1.914-1.37A2.988 2.988 0 0051.36 46H51a1 1 0 01-1-1v-1a3 3 0 00-1.78-2.735C49.584 39.2 51 36.663 51 35a6 6 0 00-12 0c0 1.595 1.3 3.994 2.612 6.007a2.985 2.985 0 00-2.879 2.5l-.439 2.659a1.008 1.008 0 01-.984.834h-.765A5.867 5.867 0 0037 45a6 6 0 00-12 0c0 1.627 1.355 4.092 2.691 6.13l-.105.087a2.965 2.965 0 00-.771 3.65L28 57.236v2.474A28.082 28.082 0 016.254 43zM41 35a4 4 0 018 0c0 1.521-2.208 4.972-4 7.365-1.792-2.393-4-5.844-4-7.365zM27 45a4 4 0 018 0c0 1.521-2.208 4.972-4 7.365-1.792-2.393-4-5.844-4-7.365zm5 15a28.16 28.16 0 01-2-.079V57a1 1 0 00-.105-.447L28.6 53.969a.974.974 0 01.229-1.18c.68.943 1.226 1.634 1.388 1.836a1 1 0 001.56 0A43.98 43.98 0 0035.6 49h1.71a2.99 2.99 0 002.957-2.507l.439-2.659A1.008 1.008 0 0141.69 43h1.3a45.689 45.689 0 001.235 1.625 1 1 0 001.56 0c.15-.186.628-.792 1.233-1.622A1 1 0 0148 44v1a3 3 0 003 3h.36a.981.981 0 01.577.184l1.877 1.342A27.956 27.956 0 0132 60z"/>
  </g>
</svg>