<svg viewBox="0 0 512 512" xmlns="http://www.w3.org/2000/svg">
    <path
        d="M460.8 145.067H51.2a8.53 8.53 0 00-8.533 8.533v162.133a8.53 8.53 0 008.533 8.533h409.6a8.53 8.53 0 008.533-8.533V153.6a8.53 8.53 0 00-8.533-8.533zM452.267 307.2H59.733V162.133h392.533V307.2z" />
    <path
        d="M219.366 232.9a8.523 8.523 0 00-12.066 0l-34.133 34.133a8.523 8.523 0 000 12.066 8.51 8.51 0 006.033 2.5 8.509 8.509 0 006.033-2.5l34.133-34.133a8.523 8.523 0 000-12.066z" />
    <path
        d="M253.5 267.034L219.366 232.9a8.523 8.523 0 00-12.066 0 8.523 8.523 0 000 12.066l34.133 34.133a8.51 8.51 0 006.033 2.5 8.509 8.509 0 006.033-2.5 8.522 8.522 0 00.001-12.065z" />
    <path
        d="M270.566 215.834a8.523 8.523 0 00-12.066 0l-34.133 34.133a8.523 8.523 0 000 12.066 8.51 8.51 0 006.033 2.5 8.509 8.509 0 006.033-2.5l34.133-34.133a8.523 8.523 0 000-12.066z" />
    <path
        d="M304.7 249.967l-34.133-34.133a8.523 8.523 0 00-12.066 0 8.525 8.525 0 000 12.066l34.133 34.133a8.51 8.51 0 006.033 2.5 8.509 8.509 0 006.033-2.5 8.525 8.525 0 000-12.066z" />
    <path
        d="M473.6 0H38.4C17.229 0 0 17.229 0 38.4v435.2C0 494.771 17.229 512 38.4 512h435.2c21.171 0 38.4-17.229 38.4-38.4V38.4C512 17.229 494.771 0 473.6 0zm21.333 473.6c0 11.767-9.566 21.333-21.333 21.333H38.4c-11.759 0-21.333-9.566-21.333-21.333V38.4c0-11.768 9.574-21.333 21.333-21.333h435.2c11.759 0 21.333 9.566 21.333 21.333v435.2z" />
    <path
        d="M76.8 34.133H42.667a8.53 8.53 0 00-8.533 8.533V76.8a8.53 8.53 0 008.533 8.533H76.8a8.53 8.53 0 008.533-8.533V42.667a8.531 8.531 0 00-8.533-8.534zm-8.533 34.134H51.2V51.2h17.067v17.067zM145.067 34.133h-34.133a8.53 8.53 0 00-8.533 8.533V76.8a8.53 8.53 0 008.533 8.533h34.133A8.53 8.53 0 00153.6 76.8V42.667a8.531 8.531 0 00-8.533-8.534zm-8.534 34.134h-17.067V51.2h17.067v17.067zM213.333 34.133H179.2a8.53 8.53 0 00-8.533 8.533V76.8a8.53 8.53 0 008.533 8.533h34.133a8.53 8.53 0 008.533-8.533V42.667a8.53 8.53 0 00-8.533-8.534zM204.8 68.267h-17.067V51.2H204.8v17.067zM341.137 179.2h-16.674c-9.523 0-17.263 7.74-17.263 17.263v16.683c0 9.515 7.74 17.254 17.263 17.254h16.674c9.523 0 17.263-7.74 17.263-17.263v-16.683c0-9.514-7.74-17.254-17.263-17.254zm.196 33.946a.197.197 0 01-.196.188l-16.87-.188.196-16.879 16.87.196v16.683z" />
    <path
        d="M473.6 0H38.4C17.229 0 0 17.229 0 38.4v72.533a8.53 8.53 0 008.533 8.533h494.933a8.53 8.53 0 008.533-8.533V38.4C512 17.229 494.771 0 473.6 0zm21.333 102.4H17.067v-64c0-11.768 9.574-21.333 21.333-21.333h435.2c11.759 0 21.333 9.566 21.333 21.333v64zM358.4 349.867H51.2c-4.71 0-8.533 3.814-8.533 8.533s3.823 8.533 8.533 8.533h307.2c4.71 0 8.533-3.814 8.533-8.533s-3.823-8.533-8.533-8.533zM460.8 349.867h-59.733c-4.71 0-8.533 3.814-8.533 8.533s3.823 8.533 8.533 8.533H460.8c4.71 0 8.533-3.814 8.533-8.533s-3.823-8.533-8.533-8.533zM460.8 384H153.6a8.53 8.53 0 00-8.533 8.533 8.53 8.53 0 008.533 8.533h307.2a8.53 8.53 0 008.533-8.533A8.53 8.53 0 00460.8 384zM110.933 384H51.2a8.53 8.53 0 00-8.533 8.533 8.53 8.53 0 008.533 8.533h59.733a8.53 8.53 0 008.533-8.533 8.53 8.53 0 00-8.533-8.533zM358.4 418.133H51.2c-4.71 0-8.533 3.814-8.533 8.533S46.49 435.2 51.2 435.2h307.2c4.71 0 8.533-3.814 8.533-8.533s-3.823-8.534-8.533-8.534zM460.8 418.133h-59.733c-4.71 0-8.533 3.814-8.533 8.533s3.823 8.533 8.533 8.533H460.8c4.71 0 8.533-3.814 8.533-8.533s-3.823-8.533-8.533-8.533zM460.8 452.267H153.6a8.53 8.53 0 00-8.533 8.533 8.53 8.53 0 008.533 8.533h307.2a8.53 8.53 0 008.533-8.533 8.53 8.53 0 00-8.533-8.533zM110.933 452.267H51.2a8.53 8.53 0 00-8.533 8.533 8.53 8.53 0 008.533 8.533h59.733a8.53 8.53 0 008.533-8.533 8.53 8.53 0 00-8.533-8.533z" />
</svg>